<svg width="190" height="194" viewBox="0 0 190 194" fill="none" xmlns="http://www.w3.org/2000/svg">
  <circle id="inner-ring" cx="90" cy="95" r="30" stroke="#DADADA" stroke-width="4"/>
  <g id="middle-ring">
    <mask id="mask0" mask-type="alpha" maskUnits="userSpaceOnUse" x="52" y="0" width="112" height="173">
      <path d="M89.5 0L127 50.5L89.5 101L52 50.5L89.5 0Z" fill="#C4C4C4"/>
      <path d="M96.473 83.4069L163.684 110.881L125.279 172.502L58.0675 145.028L96.473 83.4069Z" fill="#C4C4C4"/>
    </mask>
    <g mask="url(#mask0)">
      <circle cx="90" cy="95" r="44.5" stroke="#DADADA" stroke-width="11"/>
    </g>

    <animateTransform
      attributeName="transform"
      type="rotate"
      from="0 90 95"
      to="360 90 95"
      dur="2s"
      repeatCount="indefinite" />
  </g>
  <g id="outer-ring">
    <mask id="mask1" mask-type="alpha" maskUnits="userSpaceOnUse" x="0" y="0" width="190" height="194">
      <path d="M0 77H90V113H0V77Z" fill="#C4C4C4"/>
      <path d="M51.9497 125L134.216 161.499L119.885 193.802L37.618 157.303L51.9497 125Z" fill="#C4C4C4"/>
      <path d="M63.7787 146.493L171.025 98.5897L189.435 139.807L82.1889 187.71L63.7787 146.493Z" fill="#C4C4C4"/>
      <path d="M128.806 143.442L128 85.6289L173.137 84.9999L173.943 142.814L128.806 143.442Z" fill="#C4C4C4"/>
      <path d="M123.91 77.1296L92 28.9131L129.644 3.99996L161.554 52.2165L123.91 77.1296Z" fill="#C4C4C4"/>
      <path d="M29 36.4822L81.4244 0.881897L106.784 38.2267L54.3601 73.827L29 36.4822Z" fill="#C4C4C4"/>
    </mask>
    <g mask="url(#mask1)">
      <circle cx="90" cy="95" r="60.5" stroke="#DADADA" stroke-width="11"/>
    </g>
    <animateTransform
      attributeName="transform"
      type="rotate"
      from="360 90 95"
      to="0 90 95"
      dur="3s"
      repeatCount="indefinite" />
  </g>
</svg>
