
<svg width="28px" height="35px" viewBox="0 0 28 35" version="1.1" xmlns="http://www.w3.org/2000/svg" xmlns:xlink="http://www.w3.org/1999/xlink">
    <!-- Generator: Sketch 51.3 (57544) - http://www.bohemiancoding.com/sketch -->
    <desc>Created with Sketch.</desc>
    <defs></defs>
    <g id="Symbols" stroke="none" stroke-width="1" fill="none" fill-rule="evenodd">
        <g id="icon-/-millenium-falcon" fill="#ffffffb3" fill-rule="nonzero">
            <path d="M14,18.4 C12.2,18.4 10.8,19.7 10.8,21.4 C10.8,23.1 12.2,24.4 14,24.4 C15.8,24.4 17.2,23 17.2,21.4 C17.2,19.7 15.8,18.4 14,18.4" id="Shape"></path>
            <path d="M14,25.6 C11.6,25.6 9.7,23.7 9.7,21.4 C9.7,19.1 11.6,17.2 14,17.2 C16.4,17.2 18.3,19.1 18.3,21.4 C18.3,23.7 16.4,25.6 14,25.6 M26.1,16.3 L26.1,7.2 L22.6,7.2 L22.6,9.9 L17.2,0.2 L15.5,0.2 L15.5,5.1 L12.5,5.1 L12.5,0.2 L10.8,0.2 L2.7,14.8 L2.8,14.8 C1.6,16.7 0.8,19 0.8,21.5 C0.8,28.5 6.7,34.2 14,34.2 C21.3,34.2 27.2,28.5 27.2,21.5 C27.2,19.6 26.8,17.9 26.1,16.3" id="Shape"></path>
        </g>
    </g>
</svg>
