
<svg width="20px" height="20px" viewBox="0 0 20 20" version="1.1" xmlns="http://www.w3.org/2000/svg" xmlns:xlink="http://www.w3.org/1999/xlink">
    <!-- Generator: Sketch 51.3 (57544) - http://www.bohemiancoding.com/sketch -->
    <desc>Created with Sketch.</desc>
    <defs></defs>
    <g id="Symbols" stroke="none" stroke-width="1" fill="none" fill-rule="evenodd">
        <g id="icon" transform="translate(-2.000000, -2.000000)" fill="#000000" fill-rule="nonzero">
            <path d="M12.5267368,15.3759019 L12.5267368,18.8127475 C14.8954002,18.5508613 16.7368421,16.543486 16.7368421,14.1048421 C16.7368421,12.8490042 16.2437352,11.6726558 15.3769506,10.7892399 C15.1760247,10.5844588 15.1761156,10.2564849 15.3771548,10.0518152 C16.2437556,9.1695648 16.7368421,7.99326508 16.7368421,6.73642105 C16.7368421,5.66276215 16.3620861,4.64365029 15.6837533,3.79573423 C15.3340151,3.35856144 15.8181386,2.75005225 16.3227351,2.99257923 C19.7649212,4.64701623 22,8.11963151 22,11.9995789 C22,17.5228867 17.5233078,21.9995789 12,21.9995789 C6.47739035,21.9995789 2,17.5225322 2,11.9995789 C2,8.11994782 4.23580129,4.64717495 7.6783176,2.99257923 C8.18291401,2.75005225 8.66703761,3.35856144 8.31729937,3.79573423 C7.63841235,4.64434301 7.26315789,5.66348337 7.26315789,6.73642105 C7.26315789,7.99263415 7.75678937,9.16904793 8.62389779,10.0518152 C8.82493704,10.2564849 8.82502787,10.5844588 8.62410202,10.7892399 C7.75680944,11.6731736 7.26315789,12.8496352 7.26315789,14.1048421 C7.26315789,16.5433801 9.10555899,18.5512216 11.4741053,18.8128225 L11.4741053,15.3759019 L10.1398457,16.7101615 C9.93430657,16.9157005 9.60106185,16.9157005 9.39552275,16.7101615 C9.18998364,16.5046223 9.18998364,16.1713777 9.39552275,15.9658385 L10.7297823,14.6315789 L8.84252632,14.6315789 C8.55185014,14.6315789 8.31621053,14.3959394 8.31621053,14.1052632 C8.31621053,13.8145869 8.55185014,13.5789474 8.84252632,13.5789474 L10.7297823,13.5789474 L9.39552275,12.2446878 C9.18998364,12.0391486 9.18998364,11.705904 9.39552275,11.5003648 C9.60106185,11.2948258 9.93430657,11.2948258 10.1398457,11.5003648 L11.4741053,12.8346244 L11.4741053,2.52631579 C11.4741053,2.23563961 11.7097448,2 12.0004211,2 C12.2910973,2 12.5267368,2.23563961 12.5267368,2.52631579 L12.5267368,12.8346244 L13.8607859,11.5005754 C14.0663251,11.2950363 14.3995697,11.2950363 14.6051088,11.5005754 C14.8106479,11.7061145 14.8106479,12.0393592 14.6051088,12.2448983 L13.2710598,13.5789474 L15.1583158,13.5789474 C15.448992,13.5789474 15.6846316,13.8145869 15.6846316,14.1052632 C15.6846316,14.3959394 15.448992,14.6315789 15.1583158,14.6315789 L13.2710598,14.6315789 L14.6051088,15.965628 C14.8106479,16.1711672 14.8106479,16.5044118 14.6051088,16.7099509 C14.3995697,16.91549 14.0663251,16.91549 13.8607859,16.7099509 L12.5267368,15.3759019 Z M11.9781836,19.8942756 C8.79087776,19.8825179 6.21052632,17.2952634 6.21052632,14.1048421 C6.21052632,12.7391822 6.68909564,11.4483781 7.54014614,10.4207902 C6.68909003,9.3939384 6.21052632,8.10297223 6.21052632,6.73642105 C6.21052632,6.12209554 6.31047674,5.52267286 6.50073152,4.95332105 C4.36464506,6.61647889 3.05263158,9.18862201 3.05263158,11.9995789 C3.05263158,16.9411618 7.05872463,20.9469474 12,20.9469474 C16.9419554,20.9469474 20.9473684,16.9415343 20.9473684,11.9995789 C20.9473684,9.18808887 19.6355814,6.61581925 17.4995487,4.95280655 C17.6896401,5.52220715 17.7894737,6.12180518 17.7894737,6.73642105 C17.7894737,8.10335138 17.3114528,9.39426398 16.4608672,10.4207902 C17.3114469,11.4480518 17.7894737,12.7388032 17.7894737,14.1048421 C17.7894737,17.2953027 15.2103208,19.8820216 12.0227417,19.8942721 C12.0153399,19.8945809 12.0078987,19.8947368 12.0004211,19.8947368 C11.9929714,19.8947368 11.9855579,19.8945821 11.9781836,19.8942756 Z" id="Shape"></path>
        </g>
    </g>
</svg>
