<?xml version="1.0" standalone="no"?>
<!DOCTYPE svg PUBLIC "-//W3C//DTD SVG 20010904//EN"
 "http://www.w3.org/TR/2001/REC-SVG-20010904/DTD/svg10.dtd">
<svg version="1.0" xmlns="http://www.w3.org/2000/svg"
 width="512.000000pt" height="512.000000pt" viewBox="0 0 512.000000 512.000000"
 preserveAspectRatio="xMidYMid meet">
<metadata>
Created by potrace 1.15, written by Peter Selinger 2001-2017
</metadata>
<g transform="translate(0.000000,512.000000) scale(0.100000,-0.100000)">
<path d="M4218 5105 c-18 -10 -70 -86 -154 -228 -70 -116 -128 -215 -130 -218
-2 -3 88 -96 199 -207 l202 -202 219 131 c189 114 220 136 233 166 8 19 11 47
8 62 -4 18 -88 109 -243 264 -256 256 -272 267 -334 232z"/>
<path d="M2950 4469 c-14 -5 -131 -116 -261 -245 -209 -209 -237 -234 -249
-219 -21 25 -66 45 -102 45 -28 0 -49 -17 -170 -138 -121 -121 -138 -142 -138
-171 0 -35 13 -65 41 -96 18 -20 13 -26 -479 -517 l-497 -496 -260 -155 c-259
-155 -260 -156 -382 -279 -66 -68 -124 -133 -128 -146 -15 -50 12 -85 248
-320 l233 -232 48 0 c47 0 49 1 158 108 61 59 124 124 139 146 28 38 29 38 38
15 5 -13 112 -126 238 -250 l228 -226 227 -57 c125 -31 244 -56 264 -56 33 0
48 12 167 127 73 70 162 156 198 191 l67 64 58 -28 c75 -37 169 -44 246 -19
47 16 72 37 219 184 141 141 169 173 183 215 18 55 21 153 6 206 -25 92 -110
175 -205 202 -32 9 -74 45 -208 177 l-167 166 457 457 458 458 -183 182 -182
183 -405 -405 -405 -405 -32 33 -33 32 458 458 457 458 0 44 c0 43 -3 46 -132
177 -139 139 -164 154 -218 132z m75 -279 l29 -31 -407 -407 -407 -407 -32 33
-33 32 405 405 c223 223 407 405 411 405 3 0 18 -14 34 -30z m-1600 -1600 l29
-30 -81 -83 c-69 -71 -102 -118 -236 -342 -124 -208 -168 -273 -219 -322 l-63
-63 -140 140 -140 140 60 61 c47 47 120 96 340 229 229 138 292 181 345 234
35 36 67 66 70 66 4 0 19 -14 35 -30z m210 -210 l29 -31 -188 -187 c-104 -103
-186 -182 -183 -177 58 112 191 312 240 363 34 34 64 62 67 62 4 0 19 -14 35
-30z m1413 -266 c13 -9 30 -31 38 -51 21 -49 6 -87 -60 -152 l-53 -53 5 51 c4
46 2 53 -26 81 -17 16 -39 30 -50 30 -30 0 -36 40 -9 69 46 50 102 59 155 25z
m-269 -279 c25 -13 52 -16 98 -13 l63 4 -52 -53 c-64 -65 -102 -80 -151 -59
-66 27 -91 103 -53 161 l18 28 22 -26 c11 -14 36 -33 55 -42z"/>
<path d="M3605 4290 l-190 -190 180 -180 180 -180 190 190 190 190 -180 180
-180 180 -190 -190z"/>
<path d="M3230 2885 l-215 -215 65 -65 c47 -47 87 -76 145 -105 88 -42 155
-101 209 -182 36 -54 76 -155 76 -192 0 -15 58 37 210 189 l210 210 0 44 0 45
-242 243 -243 243 -215 -215z"/>
<path d="M2474 1160 c-140 -135 -230 -213 -249 -218 -16 -5 -47 -5 -69 0 -21
5 -40 7 -43 5 -6 -7 135 -561 161 -631 74 -197 204 -289 437 -311 85 -8 181 6
245 36 180 85 246 314 161 557 -20 56 -392 741 -416 765 -4 4 -106 -87 -227
-203z"/>
</g>
</svg>
