<?xml version="1.0" standalone="no"?>
<!DOCTYPE svg PUBLIC "-//W3C//DTD SVG 20010904//EN"
 "http://www.w3.org/TR/2001/REC-SVG-20010904/DTD/svg10.dtd">
<svg version="1.0" xmlns="http://www.w3.org/2000/svg"
 width="464.000000pt" height="376.000000pt" viewBox="0 0 464.000000 376.000000"
 preserveAspectRatio="xMidYMid meet">

<g transform="translate(0.000000,376.000000) scale(0.100000,-0.100000)"
fill="#000000" stroke="none">
<path d="M1270 3691 c-281 -113 -452 -215 -602 -359 -107 -103 -164 -180 -218
-294 -64 -137 -91 -258 -97 -433 -9 -264 34 -413 183 -635 109 -163 154 -241
154 -267 0 -11 -9 -32 -21 -47 -28 -36 -68 -34 -159 10 -168 80 -317 217 -451
414 -53 78 -54 76 -46 -105 5 -131 31 -234 90 -350 143 -284 444 -540 775
-659 100 -36 108 -41 121 -77 14 -42 -2 -61 -78 -90 -74 -29 -251 -37 -331
-16 l-55 15 80 -75 c147 -138 395 -315 580 -414 273 -146 728 -282 990 -296
87 -5 103 -3 118 12 17 16 19 16 37 0 41 -37 313 0 591 81 425 123 761 314
1093 620 l77 71 -53 -13 c-108 -28 -269 -14 -360 32 -38 20 -48 29 -48 50 0
45 18 62 87 85 172 56 410 196 546 319 121 111 251 295 301 429 55 144 78 300
59 399 l-8 42 -54 -82 c-109 -166 -313 -343 -462 -404 -75 -30 -113 -31 -133
-2 -37 53 -19 99 121 302 133 192 181 335 190 566 19 478 -207 831 -682 1068
-113 56 -375 162 -401 162 -9 0 14 -22 52 -49 84 -59 197 -177 242 -253 182
-307 82 -724 -263 -1105 l-67 -74 66 -132 c36 -73 75 -160 86 -195 106 -325
64 -678 -118 -985 -117 -197 -368 -451 -597 -604 -111 -74 -256 -153 -281
-153 -47 0 -230 108 -388 228 -128 97 -331 300 -419 417 -113 151 -202 344
-239 520 -16 78 -16 343 1 420 28 133 101 318 173 440 l24 40 -78 89 c-310
351 -423 735 -298 1013 55 122 144 228 264 315 93 67 93 68 71 68 -11 0 -85
-27 -165 -59z"/>
<path d="M2250 3439 c-133 -22 -275 -129 -334 -252 -111 -235 -18 -511 211
-624 67 -33 86 -38 169 -41 163 -7 286 48 381 173 60 79 85 152 91 261 7 142
-30 243 -126 346 -103 110 -247 160 -392 137z"/>
</g>
</svg>
