<?xml version="1.0" standalone="no"?>
<!DOCTYPE svg PUBLIC "-//W3C//DTD SVG 20010904//EN"
 "http://www.w3.org/TR/2001/REC-SVG-20010904/DTD/svg10.dtd">
<svg version="1.0" xmlns="http://www.w3.org/2000/svg"
 width="395.000000pt" height="392.000000pt" viewBox="0 0 395.000000 392.000000"
 preserveAspectRatio="xMidYMid meet">

<g transform="translate(0.000000,392.000000) scale(0.100000,-0.100000)"
fill="#000000" stroke="none">
<path d="M1796 3910 c-260 -30 -495 -115 -711 -257 -117 -77 -200 -147 -306
-256 l-87 -89 -336 57 c-185 32 -339 55 -343 52 -5 -6 396 -511 423 -533 11
-9 9 -26 -16 -100 -61 -179 -74 -267 -74 -499 0 -180 3 -225 23 -315 140 -653
632 -1152 1259 -1278 l94 -18 62 -165 c34 -90 91 -239 126 -332 35 -92 67
-164 71 -160 10 12 239 627 239 645 0 11 22 20 86 32 481 96 908 432 1129 891
183 379 211 791 81 1201 l-25 78 134 165 c74 92 174 216 224 276 65 80 85 111
73 112 -10 2 -165 -23 -347 -55 l-329 -58 -116 117 c-257 260 -545 414 -890
475 -106 18 -339 26 -444 14z m424 -206 c191 -31 397 -118 574 -242 108 -76
271 -233 254 -244 -22 -14 -197 -66 -328 -97 -227 -54 -380 -72 -665 -78 -342
-7 -549 13 -835 82 -111 27 -319 92 -333 105 -13 11 169 176 267 242 327 219
675 294 1066 232z m-1345 -735 c790 -271 1625 -242 2430 86 26 11 26 11 -95
-86 -126 -101 -358 -329 -461 -454 -398 -483 -641 -1013 -745 -1623 -13 -79
-24 -149 -25 -155 0 -7 -11 51 -25 128 -104 605 -340 1137 -710 1600 -113 140
-370 398 -499 500 -131 103 -128 100 -65 74 30 -12 118 -44 195 -70z m-164
-307 c409 -371 699 -822 879 -1362 47 -141 117 -416 108 -425 -8 -9 -192 46
-286 85 -435 182 -746 553 -854 1020 -24 107 -35 380 -20 497 16 118 54 273
66 273 6 0 54 -40 107 -88z m2642 16 c35 -133 38 -158 44 -334 6 -193 -3 -291
-38 -424 -83 -317 -271 -595 -537 -795 -142 -107 -351 -203 -544 -249 -36 -8
-36 -7 2 152 130 548 395 1044 776 1453 96 103 260 259 273 259 5 0 15 -28 24
-62z"/>
</g>
</svg>
