<?xml version="1.0" standalone="no"?>
<!DOCTYPE svg PUBLIC "-//W3C//DTD SVG 20010904//EN"
 "http://www.w3.org/TR/2001/REC-SVG-20010904/DTD/svg10.dtd">
<svg version="1.0" xmlns="http://www.w3.org/2000/svg"
 width="407.000000pt" height="353.000000pt" viewBox="0 0 407.000000 353.000000"
 preserveAspectRatio="xMidYMid meet">

<g transform="translate(0.000000,353.000000) scale(0.100000,-0.100000)"
fill="#000000" stroke="none">
<path d="M35 3498 c746 -568 1298 -1274 1650 -2108 77 -184 185 -510 234 -711
44 -175 95 -462 107 -592 4 -43 8 -76 10 -74 2 2 13 73 24 157 169 1262 843
2425 1886 3252 63 50 114 92 114 94 0 2 -30 -10 -67 -27 -126 -56 -407 -157
-568 -204 -285 -83 -542 -135 -845 -172 -209 -26 -871 -26 -1080 0 -344 42
-691 119 -1001 221 -142 47 -214 74 -454 171 l-40 16 30 -23z"/>
</g>
</svg>
