<?xml version="1.0" standalone="no"?>
<!DOCTYPE svg PUBLIC "-//W3C//DTD SVG 20010904//EN"
 "http://www.w3.org/TR/2001/REC-SVG-20010904/DTD/svg10.dtd">
<svg version="1.0" xmlns="http://www.w3.org/2000/svg"
 width="384.000000pt" height="400.000000pt" viewBox="0 0 384.000000 400.000000"
 preserveAspectRatio="xMidYMid meet">

<g transform="translate(0.000000,400.000000) scale(0.100000,-0.100000)"
fill="#000000" stroke="none">
<path d="M1831 3310 c-91 -374 -167 -684 -170 -688 -3 -5 -374 166 -825 380
-450 214 -819 388 -821 386 -1 -2 260 -289 581 -638 321 -349 583 -637 583
-640 1 -3 -235 -131 -523 -285 -289 -154 -523 -281 -521 -283 1 -2 242 -43
535 -92 293 -49 533 -90 535 -92 1 -2 -46 -302 -105 -668 -60 -366 -107 -666
-105 -668 1 -2 227 227 500 507 274 281 500 511 502 511 3 0 219 -212 480
-470 262 -259 478 -468 480 -466 3 2 -41 289 -97 636 -56 348 -100 633 -98
635 2 2 239 40 528 84 289 45 529 83 534 84 5 2 -197 128 -450 281 -252 153
-465 284 -473 291 -11 11 43 92 324 485 185 259 335 473 333 475 -2 2 -253
-64 -558 -146 -305 -82 -557 -146 -561 -141 -4 4 -103 270 -219 592 -117 322
-215 590 -219 597 -3 6 -80 -294 -170 -667z m314 -640 c48 -135 91 -248 94
-252 4 -5 137 28 296 72 159 43 290 78 292 76 2 -1 -81 -121 -183 -265 -154
-218 -184 -265 -173 -275 8 -7 106 -68 219 -136 273 -165 283 -171 277 -176
-3 -3 -129 -24 -281 -48 -151 -23 -278 -44 -280 -47 -3 -2 19 -149 48 -327 29
-177 50 -322 47 -322 -3 0 -119 113 -256 250 l-251 251 -64 -68 c-149 -158
-461 -475 -464 -472 -2 2 21 154 51 338 29 184 52 335 51 337 -2 1 -111 18
-243 38 -290 44 -296 45 -290 56 3 4 140 79 304 166 l300 157 -23 28 c-12 14
-112 124 -222 244 -109 119 -200 221 -202 226 -4 10 43 -11 396 -179 255 -122
272 -129 277 -109 7 32 154 625 166 672 8 28 13 35 19 25 4 -8 47 -125 95
-260z"/>
</g>
</svg>
