<?xml version="1.0" standalone="no"?>
<!DOCTYPE svg PUBLIC "-//W3C//DTD SVG 20010904//EN"
 "http://www.w3.org/TR/2001/REC-SVG-20010904/DTD/svg10.dtd">
<svg version="1.0" xmlns="http://www.w3.org/2000/svg"
 width="388.000000pt" height="358.000000pt" viewBox="0 0 388.000000 358.000000"
 preserveAspectRatio="xMidYMid meet">

<g transform="translate(0.000000,358.000000) scale(0.100000,-0.100000)"
fill="#000000" stroke="none">
<path d="M1160 3575 c0 -3 66 -120 147 -260 l146 -255 492 0 491 0 129 228
c71 125 137 242 148 260 l19 32 -786 0 c-432 0 -786 -2 -786 -5z"/>
<path d="M430 2743 c-195 -339 -370 -643 -388 -675 l-33 -58 296 2 297 3 244
415 c182 307 243 419 237 431 -19 41 -289 498 -293 499 -3 0 -165 -278 -360
-617z"/>
<path d="M2947 3107 c-81 -139 -147 -257 -147 -260 0 -4 109 -194 241 -422
l242 -415 293 0 c162 0 294 2 294 6 0 8 -752 1317 -765 1332 -9 10 -42 -40
-158 -241z"/>
<path d="M1211 2216 l-243 -423 244 -427 243 -426 487 0 488 0 24 38 c87 136
457 807 453 822 -5 19 -428 768 -459 813 l-19 27 -487 0 -488 0 -243 -424z
m1168 -168 c117 -208 140 -256 133 -273 -6 -11 -69 -123 -140 -250 l-131 -230
-298 -2 -298 -3 -143 251 -143 250 143 254 143 254 296 1 297 0 141 -252z"/>
<path d="M12 1571 c15 -40 775 -1348 780 -1343 8 9 266 457 280 487 9 21 -18
73 -233 444 l-243 421 -294 0 c-162 0 -292 -4 -290 -9z"/>
<path d="M3266 1543 c-84 -131 -467 -807 -462 -818 4 -12 284 -494 291 -503 3
-4 769 1328 773 1345 3 10 -54 13 -287 13 l-291 0 -24 -37z"/>
<path d="M1306 265 c-80 -140 -146 -257 -146 -260 0 -3 351 -5 780 -5 527 0
780 3 780 10 0 6 -63 123 -141 260 l-141 250 -493 0 -493 0 -146 -255z"/>
</g>
</svg>
