<?xml version="1.0" standalone="no"?>
<!DOCTYPE svg PUBLIC "-//W3C//DTD SVG 20010904//EN"
 "http://www.w3.org/TR/2001/REC-SVG-20010904/DTD/svg10.dtd">
<svg version="1.0" xmlns="http://www.w3.org/2000/svg"
 width="373.000000pt" height="462.000000pt" viewBox="0 0 373.000000 462.000000"
 preserveAspectRatio="xMidYMid meet">

<g transform="translate(0.000000,462.000000) scale(0.100000,-0.100000)"
fill="#000000" stroke="none">
<path d="M1662 4283 c-7 -186 -12 -354 -12 -374 l0 -36 -72 -7 c-98 -9 -282
-51 -387 -88 -520 -183 -923 -591 -1095 -1108 -69 -208 -81 -286 -80 -555 0
-211 3 -253 23 -345 107 -499 397 -905 836 -1170 170 -103 383 -184 566 -215
52 -9 104 -18 117 -21 22 -4 22 -6 22 -185 0 -141 3 -180 13 -177 6 3 90 27
185 53 l172 49 0 128 c0 124 1 128 23 132 12 3 65 12 117 22 131 23 338 92
459 153 l102 51 97 -73 c112 -84 132 -98 116 -76 -65 86 -132 176 -137 185 -3
6 25 32 66 61 245 171 451 419 565 678 24 55 47 107 51 115 6 10 32 17 87 22
199 17 225 20 222 23 -2 2 -59 13 -128 25 -69 12 -130 23 -137 25 -8 3 -6 22
9 67 36 114 58 251 64 399 32 697 -357 1347 -991 1659 -172 85 -397 150 -573
166 -63 6 -73 10 -77 28 -2 12 -6 116 -10 231 -3 116 -8 274 -12 353 l-6 142
-92 0 -91 0 -12 -337z m-28 -745 c-3 -73 -18 -472 -33 -886 -16 -414 -30 -755
-34 -758 -3 -3 -261 62 -573 145 -313 82 -570 149 -571 147 -1 -1 207 -143
463 -316 255 -172 467 -317 470 -321 3 -5 -85 -138 -195 -296 -109 -159 -197
-290 -196 -292 2 -2 135 65 295 148 161 83 294 151 295 151 18 0 25 -116 25
-383 l0 -309 -42 7 c-83 12 -254 58 -326 86 -386 153 -666 410 -843 774 -68
140 -99 230 -130 375 -19 89 -23 136 -23 305 0 171 3 215 23 305 97 453 373
831 771 1055 191 108 342 155 623 194 4 1 5 -59 1 -131z m451 100 c613 -120
1105 -620 1221 -1243 26 -137 26 -423 1 -545 -19 -89 -65 -240 -74 -240 -3 0
-237 38 -521 85 -284 47 -520 85 -524 85 -5 0 -8 3 -8 8 0 4 130 192 289 417
159 226 288 411 286 413 -2 2 -180 -127 -397 -288 -328 -243 -394 -288 -400
-273 -3 10 -18 356 -32 768 -15 413 -29 771 -31 796 l-5 47 47 -5 c27 -3 93
-14 148 -25z m1076 -2225 c-47 -94 -142 -232 -223 -324 -74 -83 -220 -214
-299 -266 -39 -26 -40 -26 -54 -7 -7 10 -106 143 -218 294 -113 151 -203 277
-200 280 5 5 881 77 966 79 l57 1 -29 -57z m-1028 -425 c94 -72 210 -161 256
-196 l84 -65 -35 -18 c-109 -56 -305 -115 -440 -134 l-48 -6 0 275 c0 152 2
276 5 276 3 0 83 -59 178 -132z"/>
</g>
</svg>
