
<svg width="22px" height="24px" viewBox="0 0 22 24" version="1.1" xmlns="http://www.w3.org/2000/svg" xmlns:xlink="http://www.w3.org/1999/xlink">
    <!-- Generator: Sketch 51.3 (57544) - http://www.bohemiancoding.com/sketch -->
    <desc>Created with Sketch.</desc>
    <defs></defs>
    <g id="Symbols" stroke="none" stroke-width="1" fill="none" fill-rule="evenodd">
        <g id="willpower" fill="#ffffffb3" fill-rule="nonzero" stroke="#ffffffb3">
            <path d="M21.0368889,14.992 C21.0466667,14.9797778 21.0564444,14.9675556 21.0662222,14.9553333 C21.076,14.9406667 21.0808889,14.9284444 21.0882222,14.9137778 C21.0955556,14.8991111 21.1028889,14.8868889 21.1077778,14.8722222 C21.1126667,14.8575556 21.1175556,14.8404444 21.1224444,14.8257778 C21.1273333,14.8111111 21.1322222,14.7964444 21.1346667,14.7817778 C21.1371111,14.7622222 21.1395556,14.7451111 21.1395556,14.7255556 C21.1395556,14.7157778 21.142,14.7035556 21.142,14.6937778 C21.142,14.6913333 21.142,14.6888889 21.142,14.6888889 C21.142,14.6668889 21.1395556,14.6473333 21.1346667,14.6253333 C21.1322222,14.6131111 21.1322222,14.6033333 21.1297778,14.5911111 C21.1273333,14.574 21.12,14.5568889 21.1151111,14.5422222 C21.1102222,14.5275556 21.1077778,14.5128889 21.1004444,14.5006667 C21.0955556,14.4884444 21.0882222,14.4762222 21.0808889,14.4664444 C21.0711111,14.4493333 21.0637778,14.4322222 21.0515556,14.4175556 C21.0491111,14.4151111 21.0491111,14.4126667 21.0491111,14.4126667 L18.7,11.1102222 L18.7,9.8 C18.7,4.94777778 14.7522222,1 9.9,1 C5.04777778,1 1.1,4.94777778 1.1,9.8 C1.1,11.0417778 1.37133333,12.2957778 1.88222222,13.4226667 C2.25866667,14.2537778 2.80866667,14.9113333 3.33911111,15.5493333 C3.52977778,15.7766667 3.72533333,16.0137778 3.91111111,16.2533333 C4.59555556,17.1406667 5.07955556,18.0646667 5.346,18.9935556 C5.698,20.2157778 5.74444444,21.4575556 5.74444444,22.5111111 C5.74444444,22.78 5.96444444,23 6.23333333,23 L13.0777778,23 C13.3466667,23 13.5666667,22.78 13.5666667,22.5111111 C13.5666667,21.1642222 14.6642222,20.0666667 16.0111111,20.0666667 L18.2111111,20.0666667 C18.48,20.0666667 18.7,19.8466667 18.7,19.5777778 L18.7,15.1777778 L20.6555556,15.1777778 C20.6555556,15.1777778 20.6555556,15.1777778 20.6555556,15.1777778 C20.6555556,15.1777778 20.6555556,15.1777778 20.6555556,15.1777778 C20.6555556,15.1777778 20.6555556,15.1777778 20.6555556,15.1777778 C20.6995556,15.1777778 20.7435556,15.1704444 20.7851111,15.1582222 C20.7948889,15.1557778 20.8046667,15.1533333 20.8144444,15.1484444 C20.856,15.1337778 20.8975556,15.1142222 20.9342222,15.0897778 C20.9366667,15.0897778 20.9366667,15.0897778 20.9391111,15.0873333 C20.9488889,15.08 20.9562222,15.0726667 20.966,15.0628889 C20.9806667,15.0506667 20.9953333,15.0408889 21.0075556,15.0262222 C21.0173333,15.0164444 21.0271111,15.0042222 21.0368889,14.992 Z M18.2111111,14.2 C17.9422222,14.2 17.7222222,14.42 17.7222222,14.6888889 L17.7222222,19.0888889 L16.0111111,19.0888889 C14.2902222,19.0888889 12.8675556,20.3673333 12.628,22.0222222 L6.71733333,22.0222222 C6.70022222,21.0468889 6.61466667,19.8711111 6.28466667,18.7222222 C5.984,17.6735556 5.44622222,16.642 4.68355556,15.6544444 C4.488,15.4002222 4.28511111,15.1582222 4.08955556,14.9211111 C3.57866667,14.3075556 3.09466667,13.7257778 2.772,13.0168889 C2.31733333,12.0171111 2.07777778,10.9048889 2.07777778,9.8 C2.07777778,5.48555556 5.58555556,1.97777778 9.9,1.97777778 C14.212,1.97777778 17.7222222,5.48555556 17.7222222,9.8 L17.7222222,11.2666667 C17.7222222,11.3693333 17.754,11.4671111 17.8126667,11.5502222 L19.7046667,14.2 L18.2111111,14.2 Z M9.9,4.42222222 C6.93488889,4.42222222 4.52222222,6.83488889 4.52222222,9.8 C4.52222222,12.7651111 6.93488889,15.1777778 9.9,15.1777778 C12.8651111,15.1777778 15.2777778,12.7651111 15.2777778,9.8 C15.2777778,6.83488889 12.8651111,4.42222222 9.9,4.42222222 Z M9.9,14.2 C7.47266667,14.2 5.5,12.2273333 5.5,9.8 C5.5,7.37266667 7.47266667,5.4 9.9,5.4 C12.3248889,5.4 14.3,7.37266667 14.3,9.8 C14.3,12.2273333 12.3248889,14.2 9.9,14.2 Z M12.2002222,8.15 C12.3908889,8.34066667 12.3908889,8.65111111 12.2002222,8.84177778 L9.59444444,11.45 C9.50155556,11.5428889 9.37933333,11.5942222 9.24977778,11.5942222 C9.12022222,11.5942222 8.99555556,11.5428889 8.90511111,11.45 L7.60222222,10.1471111 C7.41155556,9.95644444 7.41155556,9.646 7.60222222,9.45533333 C7.79288889,9.26466667 8.10333333,9.26466667 8.294,9.45533333 L9.25222222,10.4135556 L11.5133333,8.15244444 C11.7015556,7.95933333 12.0095556,7.95933333 12.2002222,8.15 Z" id="Shape"></path>
        </g>
    </g>
</svg>
